<svg xmlns="http://www.w3.org/2000/svg" viewBox="0 0 200.21 144.56"><defs><style>.cls-1,.cls-2,.cls-3,.cls-5,.cls-6{fill:none;}.cls-1,.cls-2,.cls-3{stroke:#231f20;}.cls-1,.cls-5{stroke-linecap:round;}.cls-1,.cls-3,.cls-5{stroke-width:1.5px;}.cls-4{fill:#231f20;}.cls-5,.cls-6{stroke:#000;stroke-miterlimit:10;}.cls-6{stroke-width:1.01px;}</style></defs><title>Asset 1</title><g id="Layer_2" data-name="Layer 2"><g id="Layer_1-2" data-name="Layer 1"><path class="cls-1" d="M35.7,143.81h-23c-6.6,0-12-5.7-12-12.66V13.42c0-7,5.4-12.67,12-12.67H187.43c6.6,0,12,5.7,12,12.67V55"/><path class="cls-1" d="M199.43,63.9v67.25c0,7-5.4,12.66-12,12.66h-143"/><circle class="cls-2" cx="74.72" cy="81.92" r="10.88"/><circle class="cls-2" cx="96.96" cy="103.67" r="10.88"/><circle class="cls-3" cx="177.29" cy="122.57" r="12.37"/><circle class="cls-3" cx="177.42" cy="122.7" r="7.69"/><circle class="cls-3" cx="22.92" cy="122.57" r="12.37"/><circle class="cls-3" cx="23.05" cy="122.7" r="7.69"/><circle class="cls-4" cx="39.71" cy="143.53" r="1"/><circle class="cls-4" cx="199.21" cy="59.03" r="1"/><circle class="cls-3" cx="26.58" cy="28.38" r="18.57"/><circle cx="15.55" cy="22.96" r="1"/><path class="cls-5" d="M17.67,19.6a12.47,12.47,0,1,1-3.33,6.86"/><circle class="cls-3" cx="76.58" cy="28.38" r="18.57"/><circle cx="88.48" cy="31.43" r="1"/><path class="cls-5" d="M87.08,35.15a12.5,12.5,0,1,1,1.45-9.89,12.81,12.81,0,0,1,.42,2.5"/><circle class="cls-3" cx="124.58" cy="28.38" r="18.57"/><circle cx="124.22" cy="16.1" r="1"/><path class="cls-5" d="M128.18,16.41a12.5,12.5,0,1,1-9.9,1.34,12.2,12.2,0,0,1,2.28-1.09"/><circle class="cls-3" cx="174.58" cy="28.38" r="18.57"/><circle cx="162.3" cy="27.9" r="1"/><path class="cls-5" d="M162.88,24a12.5,12.5,0,1,1,.66,10,13.45,13.45,0,0,1-.93-2.36"/><circle class="cls-6" cx="75.19" cy="82.32" r="6.06"/><circle class="cls-6" cx="97.44" cy="103.53" r="6.06"/></g></g></svg>